<?xml version="1.0" encoding="UTF-8"?>
<svg width="64px" height="64px" viewBox="0 0 64 64" version="1.1" xmlns="http://www.w3.org/2000/svg" xmlns:xlink="http://www.w3.org/1999/xlink">
    <!-- Generator: Sketch 61.2 (89653) - https://sketch.com -->
    <title>competition</title>
    <desc>Created with Sketch.</desc>
    <g id="competition" stroke="none" stroke-width="1" fill="none" fill-rule="evenodd">
        <g fill-rule="nonzero">
            <g id="bg_frame">
                <rect id="frame" x="0" y="0" width="64" height="64"></rect>
            </g>
            <g id="Group-2" transform="translate(10.000000, 9.000000)">
                <g id="Group">
                    <path d="M19.2518544,30.7655798 C19.3595825,31.564407 19.4501154,32.3610166 19.5234531,33.1554084 C19.7474446,35.5816779 19.8148517,38.0286348 19.7256743,40.496279 C19.6815096,41.7166994 18.823732,42.6630167 17.8097142,42.6099346 C17.5796843,42.597893 17.353583,42.5339339 17.1431803,42.4213869 L10.7666963,39.0105281 L4.3834615,42.4249978 C3.45593391,42.9211436 2.36984216,42.4183866 1.95760767,41.3020585 C1.86420034,41.0491121 1.81107055,40.777312 1.80097778,40.500775 C1.71236151,38.0727317 1.78201544,35.6242761 2.00993957,33.1554084 C2.08453112,32.3474349 2.17567011,31.5416476 2.28335653,30.7380465" id="Path" stroke="#46008F" stroke-width="1.6" stroke-linejoin="round" transform="translate(10.763765, 36.677120) rotate(-330.000000) translate(-10.763765, -36.677120) "></path>
                    <path d="M42.1723537,31.3708261 C42.2493366,31.9859169 42.3160988,32.5996895 42.3726401,33.2121439 C42.5966316,35.6384134 42.6640387,38.0853702 42.5748614,40.5530145 C42.5306967,41.7734349 41.6729191,42.7197521 40.6589013,42.6666701 C40.4288714,42.6546285 40.20277,42.5906694 39.9923673,42.4781224 L33.6158834,39.0672636 L27.2326486,42.4817333 C26.305121,42.9778791 25.2190292,42.475122 24.8067947,41.358794 C24.7133874,41.1058476 24.6602576,40.8340475 24.6501648,40.5575105 C24.5615486,38.1294671 24.6312025,35.6810116 24.8591266,33.2121439 C24.9599486,32.1200429 25.0910023,31.031936 25.2522876,29.9478232" id="Path" stroke="#46008F" stroke-width="1.6" stroke-linejoin="round" transform="translate(33.612952, 36.310376) scale(-1, 1) rotate(-330.000000) translate(-33.612952, -36.310376) "></path>
                    <g id="Group-3" transform="translate(4.000000, 0.000000)">
                        <circle id="Oval" stroke="#46008F" stroke-width="1.6" stroke-linejoin="round" cx="18" cy="18" r="18"></circle>
                        <circle id="Oval-Copy" stroke="#00B5CA" stroke-width="1.6" stroke-linecap="round" stroke-linejoin="round" cx="18" cy="18" r="11.5714286"></circle>
                        <path d="M15.7578947,20.7936842 L17.5263158,20.7936842 L17.5263158,16.1515789 C17.5263158,15.9242094 17.5326315,15.686317 17.5452632,15.4378947 L16.5031579,16.3031579 C16.4357891,16.357895 16.3684214,16.396842 16.3010526,16.42 C16.2336839,16.443158 16.1684214,16.4547368 16.1052632,16.4547368 C15.9957889,16.4547368 15.8978952,16.4305266 15.8115789,16.3821053 C15.7252627,16.333684 15.6610528,16.2821055 15.6189474,16.2273684 L15,15.4063158 L17.8673684,13 L19.4842105,13 L19.4842105,20.7936842 L21,20.7936842 L21,22.2084211 L15.7578947,22.2084211 L15.7578947,20.7936842 Z" id="1" fill="#00B5CA"></path>
                    </g>
                </g>
            </g>
        </g>
    </g>
</svg>