<?xml version="1.0" encoding="UTF-8"?>
<svg width="64px" height="64px" viewBox="0 0 64 64" version="1.1" xmlns="http://www.w3.org/2000/svg" xmlns:xlink="http://www.w3.org/1999/xlink">
    <!-- Generator: Sketch 61.2 (89653) - https://sketch.com -->
    <title>crowdfunding</title>
    <desc>Created with Sketch.</desc>
    <g id="crowdfunding" stroke="none" stroke-width="1" fill="none" fill-rule="evenodd">
        <g fill-rule="nonzero">
            <g id="bg_frame">
                <rect id="frame" x="0" y="0" width="64" height="64"></rect>
            </g>
            <g id="Group-2" transform="translate(16.200000, 27.000000)" stroke-linejoin="round" stroke-width="1.6">
                <g id="Group-Copy" transform="translate(17.600000, 0.000000)" stroke="#46008F">
                    <path d="M1.38693089,11.4820155 C2.1259449,10.2662684 3.13026096,9.24151481 4.32612485,8.62503352 M9.43660586,8.65028558 C12.0333633,10.0188001 13.7142857,13.3152552 13.7142857,16.2857143 C13.7142857,18.2538676 13.650836,19.999947 13.5239366,21.5239524 L13.5239243,21.5239514 C13.4542534,22.360668 12.8693946,23.0647895 12.0596655,23.2867975 C10.3254913,23.7622658 8.59131706,24 6.85714286,24 C6.08643248,24 5.31572211,23.9530443 4.54501173,23.8591328" id="Shape"></path>
                    <ellipse id="Oval" cx="6.85714286" cy="4.85714286" rx="4" ry="4.85714286"></ellipse>
                </g>
                <g id="Group-Copy-2" stroke="#46008F">
                    <path d="M9.43650346,8.65023162 C10.630567,9.27948472 11.6309899,10.316385 12.3633869,11.5417943 M8.99184479,23.8799231 C8.28027748,23.9599744 7.56871017,24 6.85714286,24 C5.12296569,24 3.38878853,23.762265 1.65461136,23.2867951 C0.844879778,23.0647823 0.260018735,22.3606576 0.190347827,21.5239373 C0.0634492756,19.9999354 0,18.2538611 0,16.2857143 C0,13.3099812 1.68689662,10.0070935 4.29151998,8.64301452" id="Shape"></path>
                    <ellipse id="Oval" cx="6.85714286" cy="4.85714286" rx="4" ry="4.85714286"></ellipse>
                </g>
                <g id="Group" transform="translate(8.800000, 2.400000)" stroke="#00B5CA" stroke-linecap="round">
                    <path d="M9.45821809,8.66173115 C12.0426861,10.037106 13.7142857,13.3235041 13.7142857,16.2857143 C13.7142857,18.2538676 13.650836,19.999947 13.5239366,21.5239524 L13.5239243,21.5239514 C13.4542534,22.360668 12.8693946,23.0647895 12.0596655,23.2867975 C10.3254913,23.7622658 8.59131706,24 6.85714286,24 C5.12296569,24 3.38878853,23.762265 1.65461136,23.2867951 L1.6546123,23.2867916 C0.844879778,23.0647823 0.260018735,22.3606576 0.190347827,21.5239373 C0.0634492756,19.9999354 0,18.2538611 0,16.2857143 C0,13.3598979 1.63077737,10.1178104 4.16122404,8.71328598" id="Path"></path>
                    <ellipse id="Oval" cx="6.85714286" cy="4.85714286" rx="4" ry="4.85714286"></ellipse>
                </g>
            </g>
            <g id="Group-2" transform="translate(24.000000, 11.000000)">
                <circle id="Oval" stroke="#00B5CA" stroke-width="1.6" stroke-linecap="round" stroke-linejoin="round" cx="7.83465819" cy="7.94945171" r="7.46157923"></circle>
                <path d="M10.888166,9.68283397 C10.888166,10.2950692 10.6758001,10.8116349 10.2510619,11.2325466 C9.82632375,11.6534583 9.25427506,11.9174807 8.5348987,12.0246219 L8.5348987,12.7478211 C8.5348987,12.9238387 8.48132892,13.0673292 8.37418776,13.1782968 C8.2670466,13.2892645 8.12546933,13.3447475 7.94945171,13.3447475 C7.77343409,13.3447475 7.63185683,13.2892645 7.52471567,13.1782968 C7.41757451,13.0673292 7.36400473,12.9238387 7.36400473,12.7478211 L7.36400473,12.0475806 C6.92778715,12.0093159 6.50305535,11.917482 6.08979658,11.7720761 C5.67653782,11.6266703 5.32068145,11.4353497 5.02221679,11.1981085 C4.92272857,11.1292321 4.85385314,11.0527038 4.81558844,10.9685215 C4.77732374,10.8843391 4.75819168,10.781026 4.75819168,10.6585789 C4.75819168,10.4978672 4.80602183,10.3562899 4.90168358,10.2338429 C4.99734533,10.1113959 5.10639809,10.0501733 5.22884513,10.0501733 C5.30537454,10.0501733 5.37616317,10.0635657 5.44121316,10.090351 C5.50626315,10.1171363 5.59235743,10.16114 5.69949859,10.2223635 C6.05153384,10.4519517 6.39782418,10.6203139 6.73838001,10.7274551 C7.07893584,10.8345962 7.43670542,10.888166 7.81169948,10.888166 C8.32444646,10.888166 8.72048017,10.7886793 8.99981248,10.5897028 C9.27914479,10.3907264 9.41880885,10.1037454 9.41880885,9.72875138 C9.41880885,9.50681611 9.3422806,9.32697472 9.1892218,9.1892218 C9.036163,9.05146888 8.84484237,8.94241612 8.61525417,8.86206025 C8.38566597,8.78170438 8.06424731,8.68795727 7.65098855,8.58081611 C7.07701804,8.43541025 6.6101957,8.28809336 6.25050752,8.13886103 C5.89081934,7.9896287 5.58087992,7.76195715 5.32067996,7.45583955 C5.06047999,7.14972195 4.93038197,6.73646939 4.93038197,6.21606946 C4.93038197,5.59618132 5.1523139,5.06813638 5.59618442,4.6319188 C6.04005494,4.19570121 6.62166966,3.92402592 7.34104602,3.81688476 L7.34104602,3.09368554 C7.34104602,2.91766792 7.3946158,2.77417745 7.50175696,2.66320982 C7.60889812,2.55224219 7.75047539,2.4967592 7.92649301,2.4967592 C8.10251063,2.4967592 8.2440879,2.55224219 8.35122906,2.66320982 C8.45837022,2.77417745 8.51193999,2.91766792 8.51193999,3.09368554 L8.51193999,3.80540541 C9.28488694,3.90489363 9.95068273,4.18422175 10.5093474,4.64339815 C10.6930179,4.78115107 10.7848518,4.96099246 10.7848518,5.18292772 C10.7848518,5.34363946 10.7370217,5.48521673 10.6413599,5.60766377 C10.5456982,5.73011081 10.432819,5.79133341 10.302719,5.79133341 C10.2338425,5.79133341 10.1668803,5.77985418 10.1018303,5.75689536 C10.0367803,5.73393654 9.95068606,5.68801959 9.8435449,5.61914313 C9.52977436,5.39720786 9.23322738,5.23075892 8.95389507,5.11979128 C8.67456276,5.00882365 8.34357807,4.95334067 7.96093107,4.95334067 C7.48644878,4.95334067 7.10763394,5.05856702 6.82447515,5.26902287 C6.54131637,5.47947872 6.39973911,5.76837287 6.39973911,6.13571399 C6.39973911,6.38826102 6.48009377,6.59297409 6.64080551,6.74985936 C6.80151725,6.90674463 7.00431712,7.02727663 7.2492112,7.11145897 C7.49410528,7.19564131 7.82700318,7.29130163 8.24791488,7.39844279 C8.80657951,7.53619571 9.26192261,7.67777297 9.61395785,7.82317883 C9.96599309,7.9685847 10.2663665,8.18860342 10.515087,8.48324161 C10.7638076,8.7778798 10.888166,9.17773992 10.888166,9.68283397 Z" id="$" fill="#00B5CA"></path>
            </g>
        </g>
    </g>
</svg>