<?xml version="1.0" encoding="UTF-8"?>
<svg width="64px" height="64px" viewBox="0 0 64 64" version="1.1" xmlns="http://www.w3.org/2000/svg" xmlns:xlink="http://www.w3.org/1999/xlink">
    <!-- Generator: Sketch 61.2 (89653) - https://sketch.com -->
    <title>education</title>
    <desc>Created with Sketch.</desc>
    <defs>
        <path d="M12.8228066,12.2390324 C16.4906629,10.7259571 20.0815569,9.47637263 23.5954886,8.490279 C26.4094435,7.70061564 29.174044,7.07992366 31.8892902,6.62820306 L31.8892881,6.62819063 C32.9788889,6.44691971 34.0091341,7.18326662 34.190405,8.27286747 C34.2269503,8.49253737 34.2265524,8.71676827 34.1892277,8.93630709 C33.7526586,11.5041522 33.1453625,14.1199074 32.3673395,16.7835727 C31.3833567,20.1523689 30.1262924,23.5977983 28.5961468,27.1198609 L28.5961566,27.1198652 C28.3891284,27.5963991 28.004783,27.9736656 27.5244833,28.1718003 C23.8566269,29.6848756 20.2657329,30.93446 16.7518013,31.9205537 C13.9378463,32.710217 11.1732458,33.330909 8.45799969,33.7826296 L8.45800175,33.782642 C7.3684009,33.963913 6.33815578,33.2275661 6.15688487,32.1379652 C6.12033959,31.9182953 6.12073748,31.6940644 6.15806212,31.4745256 C6.59463129,28.9066804 7.20192737,26.2909252 7.97995035,23.62726 C8.96393317,20.2584638 10.2209974,16.8130343 11.7511431,13.2909717 L11.7511332,13.2909675 C11.9581614,12.8144336 12.3425068,12.4371671 12.8228066,12.2390324 Z" id="path-1"></path>
    </defs>
    <g id="education" stroke="none" stroke-width="1" fill="none" fill-rule="evenodd">
        <g>
            <g id="bg_frame" fill-rule="nonzero">
                <rect id="frame" x="0" y="0" width="64" height="64"></rect>
            </g>
            <g id="Group-2" transform="translate(12.000000, 8.000000)">
                <path d="M35.0000199,23.6471741 L35.0000199,31.3270633 C35.0000199,32.0424868 34.6178722,32.7034234 33.9978503,33.0603599 C30.590242,35.022064 25.9242919,36.002916 20,36.002916 C14.075704,36.002916 9.40975702,35.0220626 6.00215902,33.0603558 C5.38214175,32.7034145 5,32.0424792 5,31.3270573 L5,24.1507035 L5,24.1507035" id="Path" stroke="#00B5CA" stroke-width="1.6" stroke-linecap="round" stroke-linejoin="round" fill-rule="nonzero"></path>
                <g id="Rectangle-Copy-3" transform="translate(20.000000, 20.000000) rotate(90.000000) translate(-20.000000, -20.000000) ">
                    <mask id="mask-2" fill="white">
                        <use xlink:href="#path-1"></use>
                    </mask>
                    <use id="Rectangle-Copy-2" stroke="#46008F" stroke-width="1.6" stroke-linejoin="round" fill-rule="nonzero" transform="translate(20.173645, 20.205416) rotate(-47.000000) translate(-20.173645, -20.205416) " xlink:href="#path-1"></use>
                </g>
                <g id="Group" transform="translate(9.000000, 19.000000)" fill-rule="nonzero">
                    <path d="M10.2575754,0.888997503 L10.7424246,1.76359529 C5.33369067,4.76202509 2.56931432,6.9502965 2.56931432,8 L2.56931432,23.0930233 L1.56931432,23.0930233 L1.56931432,8 C1.56931432,6.38303684 4.42539509,4.12217251 10.2575754,0.888997503 Z" id="Path-17" fill="#3E1289"></path>
                    <path d="M2,23 C3.1045695,23 4,23.8954305 4,25 L4,27 C4,27.5522847 3.55228475,28 3,28 L1,28 C0.44771525,28 6.76353751e-17,27.5522847 0,27 L0,25 C-1.3527075e-16,23.8954305 0.8954305,23 2,23 Z" id="Rectangle" fill="#00B5CA"></path>
                    <circle id="Oval" fill="#3E1289" cx="11" cy="1" r="1"></circle>
                </g>
            </g>
        </g>
    </g>
</svg>