<?xml version="1.0" encoding="UTF-8"?>
<svg width="64px" height="64px" viewBox="0 0 64 64" version="1.1" xmlns="http://www.w3.org/2000/svg" xmlns:xlink="http://www.w3.org/1999/xlink">
    <!-- Generator: Sketch 61.2 (89653) - https://sketch.com -->
    <title>energy</title>
    <desc>Created with Sketch.</desc>
    <g id="energy" stroke="none" stroke-width="1" fill="none" fill-rule="evenodd">
        <g fill-rule="nonzero">
            <g id="bg_frame">
                <rect id="frame" x="0" y="0" width="64" height="64"></rect>
            </g>
            <path d="M14.18148,33.232255 L16.2215556,31.1891642 L16.3291437,32.9649604 C16.8293543,41.221194 23.688289,47.7 32,47.7 C39.9849737,47.7 46.6739378,41.7072902 47.5930364,33.8430931 L47.6253061,33.5669799 L49.9306891,31.2607691 L52.2434705,33.572227 L52.2077383,33.9474593 C51.2205543,44.3141247 42.4862262,52.3 32,52.3 C21.0579038,52.3 12.0943974,43.6270375 11.7126304,32.7225997 L11.6415769,30.6930935 L14.18148,33.232255 Z M49.9313397,32.1092237 L47.6457414,34.3963341 L47.6951293,32.3951453 C47.6983747,32.263642 47.7,32.1319207 47.7,32 C47.7,23.3291294 40.6708706,16.3 32,16.3 C23.4617564,16.3 16.4933917,23.1240503 16.3039553,31.6438777 L16.2968255,31.9645386 L14.1823945,34.0813375 L11.7009025,31.6006994 L11.7135218,31.2523747 C12.1081844,20.3587051 21.0672225,11.7 32,11.7 C43.2113804,11.7 52.3,20.7886196 52.3,32 C52.3,32.1870306 52.2974685,32.373775 52.2924138,32.5601998 L52.2420337,34.4182833 L49.9313397,32.1092237 Z" id="Combined-Shape" stroke="#3E048B" stroke-width="1.6"></path>
            <path d="M25.5357104,34.7177161 L31.6452125,34.7177161 L31.6452125,34.7177161 L31.6452125,44.8773258 C31.6452541,45.0982168 31.8243216,45.2772843 32.0452125,45.2772843 C32.1819134,45.2772843 32.3091461,45.2074667 32.382574,45.0921607 C33.9681895,42.6022221 35.2509213,40.2857876 36.2307692,38.1428571 C37.2956595,35.813939 38.2151742,33.225506 38.9893134,30.3775579 C39.0472417,30.1643839 38.9214069,29.9446025 38.7082373,29.886658 C38.6740396,29.8773622 38.6387581,29.8726525 38.6033195,29.8726525 L32.4773424,29.8726525 L32.4773424,29.8726525 L32.4773424,19.4122287 C32.4773261,19.1913238 32.2982473,19.012245 32.0773424,19.012245 C31.9370659,19.012245 31.8070411,19.0857297 31.7346814,19.2059028 C30.3705557,21.4714102 29.1822069,23.7361092 28.1696352,26 C27.0427308,28.5195138 26.037043,31.2537719 25.1525717,34.2027744 C25.0890743,34.4143833 25.2091726,34.6373847 25.42079,34.7008535 C25.4580724,34.7120353 25.4967872,34.7177161 25.5357104,34.7177161 Z" id="Path-33" stroke="#00B5CA" stroke-width="1.6" stroke-linecap="round" stroke-linejoin="round"></path>
        </g>
    </g>
</svg>