<?xml version="1.0" encoding="UTF-8"?>
<svg width="64px" height="64px" viewBox="0 0 64 64" version="1.1" xmlns="http://www.w3.org/2000/svg" xmlns:xlink="http://www.w3.org/1999/xlink">
    <!-- Generator: Sketch 61.2 (89653) - https://sketch.com -->
    <title>workspace</title>
    <desc>Created with Sketch.</desc>
    <defs>
        <path d="M2,0 L26,0 C27.1045695,-2.02906125e-16 28,0.8954305 28,2 L28,11 L28,11 C28,17.0751322 23.0751322,22 17,22 L11,22 C4.92486775,22 7.43989126e-16,17.0751322 0,11 L0,11 L0,11 L0,2 C-1.3527075e-16,0.8954305 0.8954305,2.02906125e-16 2,0 Z" id="path-1"></path>
    </defs>
    <g id="workspace" stroke="none" stroke-width="1" fill="none" fill-rule="evenodd">
        <g>
            <g id="bg_frame" fill-rule="nonzero">
                <rect id="frame" x="0" y="0" width="64" height="64"></rect>
            </g>
            <g id="Group" transform="translate(16.000000, 30.000000)">
                <path d="M27.5932551,10.9955515 C27.9750942,10.9716523 28.3903458,10.8514848 28.8516963,10.6357475 C30.7209566,9.7616417 31,8.343919 31,6.58520115 C31,5.52211611 30.4881131,3.81807276 28.6294242,4.03260291 C28.3074865,4.06976101 28.0057959,4.11159011 27.7245812,4.15778905 C27.0199743,4.27354435 26.9967506,11.0328866 27.5932551,10.9955515 Z M28.380968,2.04755448 C32,2.04755448 33,3.9103541 33,6.5 C33,8.9923433 32.3329654,11.1692051 29.7232179,12.4218338 C29.0889306,12.7262795 28.4706945,12.9103027 27.8763989,12.9743493 M24.2313248,11.4952054 L24,11.2387088 M24,3.34632482 L24.4770054,3.08116027" id="Rectangle" fill="#3E1289" fill-rule="nonzero"></path>
                <g id="Rectangle-2">
                    <mask id="mask-2" fill="white">
                        <use xlink:href="#path-1"></use>
                    </mask>
                    <use id="Rectangle" stroke="#46008F" stroke-width="1.6" stroke-linejoin="round" fill-rule="nonzero" xlink:href="#path-1"></use>
                </g>
            </g>
            <g id="wifi" transform="translate(20.000000, 12.000000)" fill="#00B5CA" fill-rule="nonzero">
                <path d="M10,12.3076923 C10.8496688,12.3076923 11.5384615,12.996485 11.5384615,13.8461538 C11.5384615,14.6958227 10.8496688,15.3846154 10,15.3846154 C9.15033115,15.3846154 8.46153846,14.6958227 8.46153846,13.8461538 C8.46153846,12.996485 9.15033115,12.3076923 10,12.3076923 Z M10,6.15384615 C12.1538462,6.15384615 14,7 15.3846154,8.38461538 C15.6923077,8.69230769 15.6923077,9.15384615 15.3846154,9.46153846 L15.3846154,9.46153846 L14.3076923,10.5384615 C14,10.8461538 13.5384615,10.8461538 13.2307692,10.5384615 C12.3846154,9.76923077 11.2307692,9.23076923 10,9.23076923 C8.76923077,9.23076923 7.61538462,9.69230769 6.76923077,10.5384615 C6.46153846,10.8461538 6,10.8461538 5.69230769,10.5384615 L5.69230769,10.5384615 L4.61538462,9.46153846 C4.30769231,9.15384615 4.30769231,8.69230769 4.61538462,8.38461538 C6,7 7.84615385,6.15384615 10,6.15384615 Z M10,5.10702591e-14 C13.8461538,5.10702591e-14 17.2307692,1.53846154 19.7692308,4.07692308 C19.9230769,4.15384615 20,4.38461538 20,4.61538462 C20,4.84615385 19.9230769,5 19.7692308,5.15384615 L19.7692308,5.15384615 L18.6923077,6.23076923 C18.3846154,6.53846154 17.9230769,6.53846154 17.6153846,6.23076923 C15.6923077,4.30769231 13,3.07692308 10,3.07692308 C7,3.07692308 4.30769231,4.30769231 2.38461538,6.23076923 C2.07692308,6.53846154 1.61538462,6.53846154 1.30769231,6.23076923 L1.30769231,6.23076923 L0.230769231,5.15384615 C0.0769230769,5 -1.77635684e-15,4.84615385 -1.77635684e-15,4.61538462 C-1.77635684e-15,4.38461538 0.0769230769,4.23076923 0.230769231,4.07692308 C2.69230769,1.53846154 6.15384615,5.10702591e-14 10,5.10702591e-14 Z" id="Combined-Shape"></path>
            </g>
        </g>
    </g>
</svg>