<?xml version="1.0" encoding="UTF-8"?>
<svg width="64px" height="64px" viewBox="0 0 64 64" version="1.1" xmlns="http://www.w3.org/2000/svg" xmlns:xlink="http://www.w3.org/1999/xlink">
    <!-- Generator: Sketch 61.2 (89653) - https://sketch.com -->
    <title>Chart</title>
    <desc>Created with Sketch.</desc>
    <defs>
        <path d="M14.2863475,7.15656169 C16.9481154,6.56965486 19.9427191,6.56965486 23.2701587,7.15656169 L23.270173,5.83408425 C23.270173,5.70782154 23.3683404,5.60546539 23.4894359,5.60546539 C23.5277145,5.60546539 23.5653261,5.61591405 23.5985303,5.63577223 C24.7151978,6.30360984 25.7852142,7.02829556 26.8085796,7.80982941 C27.8677328,8.61869405 28.8760939,9.48782525 29.8336628,10.417223 C29.9222958,10.503261 29.9272639,10.6479254 29.8447533,10.7403467 C29.8406148,10.7449822 29.8362935,10.7494365 29.8318003,10.7536979 C28.7705466,11.7602173 27.7251288,12.6569815 26.6955469,13.4439905 C25.7090915,14.1980338 24.6767765,14.8974911 23.5986019,15.5423623 C23.4935558,15.6052611 23.3595136,15.5673938 23.2992388,15.4578355 C23.2801845,15.4232014 23.2701587,15.3839694 23.2701587,15.3440415 L23.2701587,14.0183422 C21.4039511,13.7671257 18.7313267,13.6663286 15.2522856,13.7159507 C10.0337239,13.7903839 5.30156351,15.4406789 4.83672808,14.2812614 C4.37189265,13.1218438 10.2936957,8.03692194 14.2863475,7.15656169 Z" id="path-1"></path>
    </defs>
    <g id="Chart" stroke="none" stroke-width="1" fill="none" fill-rule="evenodd">
        <g id="chart">
            <g id="bg_frame" fill-rule="nonzero">
                <rect id="frame" x="0" y="0" width="64" height="64"></rect>
            </g>
            <g transform="translate(10.000000, 10.000000)">
                <path d="M3.06654756,27.2104432 C2.83347207,27.3779467 2.66816312,27.6234335 2.60059986,27.9024054 C2.0667284,30.1063301 1.8000313,32.3082845 1.8000313,34.5095245 C1.8000313,36.492323 2.01642199,38.4756433 2.44952228,40.4604251 C2.55726035,40.9541596 2.96277916,41.3274886 3.46371538,41.3941207 C9.64274582,42.2159273 15.8214318,42.6268077 22,42.6268077 C28.1460057,42.6268077 34.2921364,42.2202468 40.4386152,41.40708 C40.9620351,41.3378326 41.3787016,40.9346048 41.4650675,40.4137376 C42.2052334,35.9496546 42.5752633,31.4849301 42.5752633,27.0191334 C42.5752633,22.276297 42.1579152,16.9302699 41.3224126,10.9823737 C41.3089614,10.8866158 41.2289339,10.8141995 41.1323021,10.8103545 C36.5208823,10.6267556 32.1345751,12.8916081 27.94502,17.6744757 C24.1330267,22.0263122 21.134481,23.6809929 17.3820668,24.0269329 C16.6548456,24.0939764 16.0761968,24.1133446 14.7830075,24.1312048 C13.0663395,24.1549137 12.2840231,24.1895087 11.2440943,24.3221424 C7.86363209,24.7532904 5.14092442,25.7196591 3.06654756,27.2104432 Z M2.13280185,25.9111669 C4.44018173,24.2529315 7.41294511,23.1978106 11.0416683,22.7349991 C12.1596521,22.5924102 12.985915,22.5558719 14.760912,22.5313574 C16.0125701,22.5140708 16.5631988,22.4956404 17.2351836,22.4336892 C20.5593373,22.1272311 23.1884305,20.6764245 26.7414643,16.6202206 C31.2268405,11.4996387 36.0544572,9.0069177 41.1959349,9.21162038 C42.0655167,9.24622109 42.7857984,9.89799812 42.9068569,10.7598063 C43.7521923,16.7777014 44.1752633,22.1970365 44.1752633,27.0191334 C44.1752633,31.5728993 43.7979794,36.1251492 43.043517,40.6754575 C42.8419956,41.8908201 41.8697771,42.8316816 40.6484634,42.993259 C34.4325648,43.8156098 28.216336,44.2268077 22,44.2268077 C15.7507312,44.2268077 9.50158038,43.8112414 3.2527617,42.980153 C2.08389777,42.8246765 1.13769533,41.9535828 0.886306415,40.8015352 C0.428895972,38.7053466 0.200031299,36.6076965 0.200031299,34.5095245 C0.200031299,32.1804569 0.482037602,29.8521037 1.04556404,27.5257576 C1.20320464,26.8748521 1.58894783,26.3020163 2.13280185,25.9111669 Z" id="Mask" fill="#3E1289" fill-rule="nonzero"></path>
                <mask id="mask-2" fill="white">
                    <use xlink:href="#path-1"></use>
                </mask>
                <use id="Rectangle" fill="#00B5CA" fill-rule="nonzero" transform="translate(17.357233, 10.589112) rotate(-26.000000) translate(-17.357233, -10.589112) " xlink:href="#path-1"></use>
            </g>
        </g>
    </g>
</svg>