<?xml version="1.0" encoding="UTF-8"?>
<svg width="64px" height="64px" viewBox="0 0 64 64" version="1.1" xmlns="http://www.w3.org/2000/svg" xmlns:xlink="http://www.w3.org/1999/xlink">
    <!-- Generator: Sketch 61.2 (89653) - https://sketch.com -->
    <title>cloud</title>
    <desc>Created with Sketch.</desc>
    <defs>
        <path d="M26.1557372,0 C32.9359058,0 38.5895682,4.82314612 39.8728932,11.2256071 C43.5300088,12.1812489 46.2287449,15.50783 46.2287449,19.4647347 C46.2287449,24.0716079 42.5705928,27.8240738 38.0006341,27.9757873 L38,28 C33.2878709,28.3569303 28.3259951,28.5353954 23.1143724,28.5353954 C17.9027498,28.5353954 12.8646257,28.3453844 8,27.9653625 L7.75463614,27.9469999 C3.40807969,27.5619798 0,23.9113571 0,19.4647347 C0,14.7615764 3.81266312,10.9489133 8.51582142,10.9489133 C9.88642172,10.9489133 11.1813955,11.2727088 12.3284211,11.8479782 C13.3595564,5.13824535 19.1575961,0 26.1557372,0 Z" id="path-1"></path>
    </defs>
    <g id="cloud" stroke="none" stroke-width="1" fill="none" fill-rule="evenodd">
        <g>
            <g id="bg_frame" fill-rule="nonzero">
                <rect id="frame" x="0" y="0" width="64" height="64"></rect>
            </g>
            <g id="Group" transform="translate(9.000000, 18.000000)">
                <mask id="mask-2" fill="white">
                    <use xlink:href="#path-1"></use>
                </mask>
                <path stroke="#46008F" stroke-width="1.6" d="M40.5532163,10.5902566 C44.3660581,11.8075737 47.0287449,15.3710314 47.0287449,19.4647347 C47.0287449,24.2375672 43.4333826,28.1890952 38.7814201,28.7199508 L38.7808126,28.7431475 L38.0604246,28.7977148 C33.3276749,29.156207 28.34569,29.3353954 23.1143724,29.3353954 C17.8822885,29.3353954 12.8234015,29.1446014 7.94029634,28.7631316 L7.68404814,28.7438797 C2.89864249,28.3199861 -0.8,24.2998878 -0.8,19.4647347 C-0.8,14.3197486 3.37083532,10.1489133 8.51582142,10.1489133 C9.62658246,10.1489133 10.7104375,10.3438153 11.7286369,10.7179528 C13.2297959,4.06183557 19.1783454,-0.8 26.1557372,-0.8 C33.06943,-0.8 38.9992198,3.97886782 40.5532163,10.5902566 Z"></path>
                <g id="Group-2" mask="url(#mask-2)" fill-rule="nonzero" stroke="#00B5CA" stroke-linecap="round" stroke-linejoin="round" stroke-width="1.6">
                    <g transform="translate(16.000000, 17.000000)" id="Combined-Shape">
                        <path d="M7.5,9.59232693e-14 C8.09348585,9.59232693e-14 9.8360558,0.690435701 12.0012723,3 C13.2996583,4.38494499 14.2388954,5.87260751 14.8189839,7.46298755 C14.8946228,7.67051729 14.78776,7.90009684 14.5802487,7.97578624 C14.5363322,7.9918047 14.4899475,8 14.4432009,8 L12.2140706,8.00033378 C12.328173,8.66688919 12.3852242,9.33344459 12.3852242,10 C12.3852242,11 12.3156397,12 12.1764706,13 L2.86274202,13 C2.68394859,12 2.59455187,11 2.59455187,10 C2.59455187,9.33344459 2.65459821,8.66688919 2.7746909,8.00033378 L0.614502028,8 C0.393625302,7.99993269 0.214569337,7.82087673 0.214569337,7.6 C0.214569337,7.54287427 0.226807382,7.48641141 0.250459674,7.43441219 C1.12768494,5.50584538 2.04803569,4.02770798 3.01151191,3 C4.59491862,1.31103284 6.90651415,9.59232693e-14 7.5,9.59232693e-14 Z"></path>
                    </g>
                </g>
            </g>
        </g>
    </g>
</svg>