<?xml version="1.0" encoding="UTF-8"?>
<svg width="64px" height="64px" viewBox="0 0 64 64" version="1.1" xmlns="http://www.w3.org/2000/svg" xmlns:xlink="http://www.w3.org/1999/xlink">
    <!-- Generator: Sketch 61.2 (89653) - https://sketch.com -->
    <title>comunication</title>
    <desc>Created with Sketch.</desc>
    <g id="comunication" stroke="none" stroke-width="1" fill="none" fill-rule="evenodd">
        <g id="communication" fill-rule="nonzero">
            <g id="bg_frame">
                <rect id="frame" x="0" y="0" width="64" height="64"></rect>
            </g>
            <path d="M24.0305591,46.5611684 C24.1329935,46.4481892 24.5495129,45.9798115 24.6520394,45.8662878 C25.2530399,45.2008224 25.6947992,44.7743518 26.1666406,44.4520438 C26.6890035,44.0952253 27.2059545,43.9091013 27.7411142,43.9504275 C29.6312401,44.0963869 33.5484983,44.2 36.2047847,44.2 C40.0106034,44.2 43.8165492,43.9404254 47.6228661,43.4212256 C48.1483569,43.3495461 48.5644739,42.9414057 48.6463127,42.4174041 C48.9710094,40.3382652 49.1663262,38.9052588 49.2311955,38.1329983 C49.2681784,37.692721 49.6550743,37.3657864 50.0953515,37.4027693 C50.5356288,37.4397523 50.8625634,37.8266481 50.8255804,38.2669254 C50.7565925,39.0882184 50.5574719,40.5491328 50.2271501,42.6642908 C50.0361915,43.8869707 49.0652572,44.8392929 47.8391113,45.0065451 C43.9612923,45.5354982 40.0831021,45.8 36.2047847,45.8 C33.5108947,45.8 29.5570082,45.6954181 27.6179257,45.5456781 C27.5027873,45.5367869 27.3177055,45.6034241 27.0691222,45.7732277 C26.730532,46.0045137 26.3606115,46.3616318 25.8394613,46.9386819 C25.7428167,47.0456928 25.3249096,47.5156311 25.2158926,47.6358705 C24.9715628,47.9053519 24.7820652,48.1017019 24.6016766,48.2665093 C23.9542172,48.8580439 23.3640806,49.1064269 22.733324,48.6463163 C21.6801371,47.8780606 21.2106049,39.441754 21.4052909,33.9715458 C21.5127053,30.9534604 21.768312,28.0892491 22.1723683,25.378843 C22.3572,24.1391536 23.343367,23.1733071 24.5866344,23.014337 C26.6748829,22.7473237 28.1129382,22.5800983 28.9095005,22.51197 C29.3497211,22.4743188 29.7371127,22.8006659 29.7747639,23.2408865 C29.8124151,23.6811071 29.486068,24.0684987 29.0458474,24.1061499 C28.2781678,24.1718079 26.8565071,24.3371269 24.7895658,24.6014157 C24.2567376,24.6695457 23.8340907,25.0834837 23.7548782,25.6147723 C23.3598949,28.2643158 23.10961,31.0688945 23.0042786,34.0284542 C22.8661024,37.9108701 23.2479488,45.405543 23.5717301,47.0394457 C23.6965049,46.9213554 23.8424284,46.7686656 24.0305591,46.5611684 Z" id="Shape" fill="#00B5CA" transform="translate(36.095335, 35.696921) scale(-1, 1) translate(-36.095335, -35.696921) "></path>
            <g id="dialog" transform="translate(14.000000, 15.000000)">
                <path d="M2.82577431,24.5611684 C2.92820876,24.4481892 3.34472815,23.9798115 3.44725462,23.8662878 C4.04825514,23.2008224 4.49001445,22.7743518 4.96185587,22.4520438 C5.48421873,22.0952253 6.00116974,21.9091013 6.5363295,21.9504275 C8.42645532,22.0963869 12.3437136,22.2 15,22.2 C18.8191002,22.2 22.6383289,21.9386105 26.4579326,21.4157802 C26.9767119,21.3447693 27.3895565,20.9455754 27.4779693,20.4294824 C27.9593645,17.619088 28.2,14.8094179 28.2,12 C28.2,9.19058773 27.9593654,6.38092339 27.4779722,3.57053467 C27.3895675,3.05442533 26.9767233,2.65522925 26.4579329,2.58421985 C22.6383291,2.06138951 18.8191003,1.8 15,1.8 C11.1929568,1.8 7.38578638,2.05974167 3.57824443,2.57927569 C3.04988778,2.65136925 2.63248703,3.06348149 2.55366066,3.59087371 C2.15661687,6.24744916 1.90514202,9.05999419 1.79949381,12.0284542 C1.6613177,15.9108701 2.04316407,23.405543 2.36694533,25.0394457 C2.49172016,24.9213554 2.63764363,24.7686656 2.82577431,24.5611684 Z M3.36193096,0.99396547 C7.24099721,0.464672053 11.120435,0.2 15,0.2 C18.8918503,0.2 22.783572,0.466350952 26.6749142,0.999000906 C27.8854204,1.16468886 28.8487265,2.09614914 29.0550041,3.30040393 C29.5516267,6.19970234 29.8,9.09972513 29.8,12 C29.8,14.9002807 29.5516257,17.8003094 29.0549983,20.6996295 C28.8486989,21.9038636 27.8854049,22.8353062 26.6749185,23.0009985 C22.7835718,23.5336491 18.8918502,23.8 15,23.8 C12.3061099,23.8 8.35222344,23.6954181 6.41314095,23.5456781 C6.29800257,23.5367869 6.11292074,23.6034241 5.86433747,23.7732277 C5.52574728,24.0045137 5.15582672,24.3616318 4.63467655,24.9386819 C4.538032,25.0456928 4.12012485,25.5156311 4.01110782,25.6358705 C3.76677805,25.9053519 3.5772805,26.1017019 3.39689189,26.2665093 C2.74943249,26.8580439 2.15929589,27.1064269 1.52853929,26.6463163 C0.475352399,25.8780606 0.00582015728,17.441754 0.200506185,11.9715458 C0.308244109,8.94436979 0.565068371,6.07199585 0.971237525,3.35436364 C1.15516663,2.1237756 2.1290982,1.16218386 3.36193096,0.99396547 Z" id="Rectangle" fill="#3E1289"></path>
                <g id="Group" transform="translate(5.000000, 10.000000)" fill="#46008F">
                    <circle id="Oval" cx="2" cy="2" r="2"></circle>
                    <circle id="Oval-Copy" cx="10" cy="2" r="2"></circle>
                    <circle id="Oval-Copy-2" cx="18" cy="2" r="2"></circle>
                </g>
            </g>
        </g>
    </g>
</svg>