<?xml version="1.0" encoding="UTF-8"?>
<svg width="64px" height="64px" viewBox="0 0 64 64" version="1.1" xmlns="http://www.w3.org/2000/svg" xmlns:xlink="http://www.w3.org/1999/xlink">
    <!-- Generator: Sketch 61.2 (89653) - https://sketch.com -->
    <title>flow</title>
    <desc>Created with Sketch.</desc>
    <g id="flow" stroke="none" stroke-width="1" fill="none" fill-rule="evenodd">
        <g fill-rule="nonzero">
            <g id="bg_frame">
                <rect id="frame" x="0" y="0" width="64" height="64"></rect>
            </g>
            <g id="Group" transform="translate(9.000000, 14.000000)">
                <g id="Group-2" transform="translate(11.000000, 0.000000)" stroke="#46008F" stroke-linejoin="round" stroke-width="1.6">
                    <path d="M2.33065005,0 L22.5317274,0 C23.4706643,7.56480052e-06 24.2831881,0.653167539 24.4849837,1.57016327 C24.7365755,2.71344218 24.8623714,3.85672109 24.8623714,5 C24.8623714,6.14327663 24.736576,7.28655327 24.4849852,8.4298299 C24.2831958,9.34683464 23.4706657,10 22.5317213,10 L2.33064399,10 C1.39170702,9.99999244 0.579183257,9.34683246 0.377387698,8.42983673 C0.125795899,7.28655782 0,6.14327891 0,5 C0,3.85672337 0.125795399,2.71344673 0.377386196,1.5701701 C0.579175514,0.653165365 1.39170564,1.72481291e-16 2.33065005,0 Z" id="Rectangle"></path>
                    <line x1="4" y1="3.5" x2="17.9191698" y2="3.5" id="Path" fill="#FFFFFF" stroke-linecap="round"></line>
                    <line x1="4" y1="6.5" x2="10" y2="6.5" id="Path-Copy" fill="#FFFFFF" stroke-linecap="round"></line>
                </g>
                <g id="Group-2-Copy" transform="translate(11.000000, 13.000000)" stroke-linecap="round" stroke-linejoin="round" stroke-width="1.6">
                    <path d="M2.33065005,0 L22.5317274,0 C23.4706643,7.56480052e-06 24.2831881,0.653167539 24.4849837,1.57016327 C24.7365755,2.71344218 24.8623714,3.85672109 24.8623714,5 C24.8623714,6.14327663 24.736576,7.28655327 24.4849852,8.4298299 C24.2831958,9.34683464 23.4706657,10 22.5317213,10 L2.33064399,10 C1.39170702,9.99999244 0.579183257,9.34683246 0.377387698,8.42983673 C0.125795899,7.28655782 0,6.14327891 0,5 C0,3.85672337 0.125795399,2.71344673 0.377386196,1.5701701 C0.579175514,0.653165365 1.39170564,1.72481291e-16 2.33065005,0 Z" id="Rectangle" stroke="#00B5CA"></path>
                    <line x1="4" y1="3.5" x2="17.9191698" y2="3.5" id="Path" stroke="#46008F" fill="#FFFFFF"></line>
                    <line x1="4" y1="6.5" x2="10" y2="6.5" id="Path-Copy" stroke="#46008F" fill="#FFFFFF"></line>
                </g>
                <path d="M4.48535829,9.10493821 C6.97035177,7.57837408 9.42551715,7.34457117 9.42758252,7.38014884 L9.42759055,6.58839823 C9.42759055,6.51280633 9.48272365,6.45152699 9.55073376,6.45152699 C9.5722319,6.45152699 9.59335548,6.45778248 9.61200372,6.46967132 C10.2391505,6.86949729 10.840097,7.30335752 11.4148431,7.77125201 C12.0096885,8.25550909 12.5760078,8.77584702 13.1138011,9.33226577 C13.1635795,9.38377565 13.1663697,9.4703844 13.1200298,9.52571584 C13.1177055,9.52849108 13.1152785,9.53115778 13.1127551,9.53370904 C12.51673,10.1362995 11.9295987,10.673181 11.3513612,11.1443534 C10.7973447,11.5957896 10.2175722,12.0145459 9.61204397,12.4006222 C9.5530476,12.4382789 9.47776631,12.4156083 9.44391459,12.3500171 C9.43321323,12.3292821 9.42758252,12.3057943 9.42758252,12.2818901 L9.42758252,11.4882105 C8.3351716,11.4426973 7.03044024,11.7736471 5.51338846,12.48106 C3.23781078,13.5421793 0.868943165,15.2384913 0.20820941,14.9549056 C-0.452524345,14.6713199 2.0003648,10.6315023 4.48535829,9.10493821 Z" id="Rectangle" fill="#00B5CA" transform="translate(6.626042, 10.718966) rotate(-65.000000) translate(-6.626042, -10.718966) "></path>
                <path d="M37.9348456,22.9122265 C40.4198391,21.3856624 42.8750045,21.1518595 42.8770698,21.1874372 L42.8770779,20.3956866 C42.8770779,20.3200947 42.932211,20.2588153 43.0002211,20.2588153 C43.0217192,20.2588153 43.0428428,20.2650708 43.061491,20.2769596 C43.6886378,20.6767856 44.2895843,21.1106458 44.8643304,21.5785403 C45.4591758,22.0627974 46.0254951,22.5831353 46.5632884,23.1395541 C46.6130668,23.191064 46.615857,23.2776727 46.5695171,23.3330042 C46.5671928,23.3357794 46.5647658,23.3384461 46.5622424,23.3409974 C45.9662173,23.9435879 45.379086,24.4804693 44.8008486,24.9516417 C44.246832,25.403078 43.6670595,25.8218342 43.0615313,26.2079105 C43.0025349,26.2455672 42.9272536,26.2228966 42.8934019,26.1573054 C42.8827005,26.1365704 42.8770698,26.1130827 42.8770698,26.0891784 L42.8770698,25.2954989 C41.7846589,25.2499856 40.4799276,25.5809355 38.9628758,26.2883483 C36.6872981,27.3494676 34.3184305,29.0457797 33.6576967,28.7621939 C32.996963,28.4786082 35.4498521,24.4387907 37.9348456,22.9122265 Z" id="Rectangle-Copy" fill="#3E1289" transform="translate(40.075529, 24.526255) scale(1, -1) rotate(-252.000000) translate(-40.075529, -24.526255) "></path>
                <g id="Group-2-Copy-2" transform="translate(11.000000, 26.000000)" stroke="#46008F" stroke-linejoin="round" stroke-width="1.6">
                    <path d="M2.33065005,0 L22.5317274,0 C23.4706643,7.56480052e-06 24.2831881,0.653167539 24.4849837,1.57016327 C24.7365755,2.71344218 24.8623714,3.85672109 24.8623714,5 C24.8623714,6.14327663 24.736576,7.28655327 24.4849852,8.4298299 C24.2831958,9.34683464 23.4706657,10 22.5317213,10 L2.33064399,10 C1.39170702,9.99999244 0.579183257,9.34683246 0.377387698,8.42983673 C0.125795899,7.28655782 0,6.14327891 0,5 C0,3.85672337 0.125795399,2.71344673 0.377386196,1.5701701 C0.579175514,0.653165365 1.39170564,1.72481291e-16 2.33065005,0 Z" id="Rectangle"></path>
                    <line x1="4" y1="3.5" x2="17.9191698" y2="3.5" id="Path" fill="#FFFFFF" stroke-linecap="round"></line>
                    <line x1="4" y1="6.5" x2="10" y2="6.5" id="Path-Copy" fill="#FFFFFF" stroke-linecap="round"></line>
                </g>
            </g>
        </g>
    </g>
</svg>