<?xml version="1.0" encoding="UTF-8"?>
<svg width="64px" height="64px" viewBox="0 0 64 64" version="1.1" xmlns="http://www.w3.org/2000/svg" xmlns:xlink="http://www.w3.org/1999/xlink">
    <!-- Generator: Sketch 61.2 (89653) - https://sketch.com -->
    <title>website</title>
    <desc>Created with Sketch.</desc>
    <defs>
        <circle id="path-1" cx="6" cy="6" r="6"></circle>
    </defs>
    <g id="website" stroke="none" stroke-width="1" fill="none" fill-rule="evenodd">
        <g>
            <g id="bg_frame" fill-rule="nonzero">
                <rect id="frame" x="0" y="0" width="64" height="64"></rect>
            </g>
            <g id="Group" transform="translate(11.000000, 15.000000)">
                <path d="M11.6930986,1.20932783 C14.7953991,1.06977594 17.8976995,1 21,1 C27.1382672,1 33.2765344,1.27316785 39.4148015,1.81950355 C40.3486304,1.90262517 41.0993977,2.62325547 41.2206805,3.55289842 C41.7402268,7.53526561 42,11.5176328 42,15.5 C42,19.4823704 41.7402264,23.4647408 41.2206792,27.4471112 C41.0993886,28.3767523 40.3486219,29.0973819 39.4147933,29.1804972 C33.2765289,29.7268324 27.1382644,30 21,30 C14.8617328,30 8.72346563,29.7268322 2.58519845,29.1804965 C1.65136961,29.0973748 0.90060231,28.3767445 0.779319522,27.4471016 C0.259773174,23.4647344 0,19.4823672 0,15.5 C0,11.5902188 0.250389781,7.68043764 0.751169343,3.77065646 C0.752955976,3.75670752 0.762584523,3.68622292 0.780054984,3.55920266 C0.807240424,3.36148725 0.862888864,3.17345511 0.942653583,2.99920121" id="Path" stroke="#46008F" stroke-width="1.6" stroke-linejoin="round" fill-rule="nonzero"></path>
                <path d="M21,0 C25.7864934,0 30.5729867,0.0229105186 35.3594801,0.0687315559 L40.1459738,0.122158036 C41.1737298,0.135276295 42,0.972160348 42,2 L42,2 C42,3.02783965 41.1737298,3.86472371 40.1459738,3.87784196 C33.7639823,3.95927019 27.3819911,4 21,4 C16.2135066,4 11.4270133,3.97708948 6.64051994,3.93126844 L1.85402618,3.87784196 C0.875211009,3.86534838 0.0791492884,3.10567495 0.005553422,2.14546689 L0,2 L0,2 C-3.47918659e-16,0.972160348 0.82627025,0.135276295 1.85402618,0.122158036 C8.23601772,0.0407298109 14.6180089,0 21,0 Z M2,1 C1.44771525,1 1,1.44771525 1,2 C1,2.55228475 1.44771525,3 2,3 C2.55228475,3 3,2.55228475 3,2 C3,1.44771525 2.55228475,1 2,1 Z M6,1 C5.44771525,1 5,1.44771525 5,2 C5,2.55228475 5.44771525,3 6,3 C6.55228475,3 7,2.55228475 7,2 C7,1.44771525 6.55228475,1 6,1 Z M10,1 C9.44771525,1 9,1.44771525 9,2 C9,2.55228475 9.44771525,3 10,3 C10.5522847,3 11,2.55228475 11,2 C11,1.44771525 10.5522847,1 10,1 Z" id="Combined-Shape" fill="#00B5CA" fill-rule="nonzero"></path>
                <g id="Oval-2" transform="translate(4.000000, 10.000000)">
                    <mask id="mask-2" fill="white">
                        <use xlink:href="#path-1"></use>
                    </mask>
                    <circle stroke="#00B5CA" stroke-width="0.6" cx="6" cy="6" r="6.3"></circle>
                    <path d="M5.4,-0.177170124 C5.4,-0.0625178878 5.33465315,0.0421083124 5.23162574,0.0924122644 C3.37204449,1.00036757 2.1,3.33874413 2.1,6 C2.1,8.66125587 3.37204449,10.9996324 5.23162574,11.9075877 C5.33465315,11.9578917 5.4,12.0625179 5.4,12.1771701 L5.4,12.2878582 C5.57933996,12.2732958 5.75705867,12.2456751 5.9326395,12.205218 C5.97696576,12.1950044 6.02303424,12.1950044 6.0673605,12.205218 C6.24294133,12.2456751 6.42066004,12.2732958 6.6,12.2878582 L6.6,12.1771701 C6.6,12.0625179 6.66534685,11.9578917 6.76837426,11.9075877 C8.62795551,10.9996324 9.9,8.66125587 9.9,6 C9.9,3.33874413 8.62795551,1.00036757 6.76837426,0.0924122644 C6.66534685,0.0421083124 6.6,-0.0625178878 6.6,-0.177170124 L6.6,-0.287858222 C6.42066004,-0.273295757 6.24294133,-0.245675051 6.0673605,-0.20521798 C6.02303424,-0.19500439 5.97696576,-0.19500439 5.9326395,-0.20521798 C5.75705867,-0.245675051 5.57933996,-0.273295757 5.4,-0.287858222 L5.4,-0.177170124 Z M1.5,6 C1.5,3.20031797 2.81437653,0.707859732 4.8,-0.360385747 L4.8,-0.6 C4.8,-0.765685425 4.93431458,-0.9 5.1,-0.9 C5.40381094,-0.9 5.70455664,-0.868005836 6,-0.804856414 C6.29544336,-0.868005836 6.59618906,-0.9 6.9,-0.9 C7.06568542,-0.9 7.2,-0.765685425 7.2,-0.6 L7.2,-0.360385747 C9.18562347,0.707859732 10.5,3.20031797 10.5,6 C10.5,8.79968203 9.18562347,11.2921403 7.2,12.3603857 L7.2,12.6 C7.2,12.7656854 7.06568542,12.9 6.9,12.9 C6.59618906,12.9 6.29544336,12.8680058 6,12.8048564 C5.70455664,12.8680058 5.40381094,12.9 5.1,12.9 C4.93431458,12.9 4.8,12.7656854 4.8,12.6 L4.8,12.3603857 C2.81437653,11.2921403 1.5,8.79968203 1.5,6 Z" id="Combined-Shape" fill="#3E1289" fill-rule="nonzero" mask="url(#mask-2)"></path>
                    <path d="M5.4,6.42282988 C5.4,6.53748211 5.33465315,6.64210831 5.23162574,6.69241226 C3.37204449,7.60036757 2.1,9.93874413 2.1,12.6 C2.1,15.2612559 3.37204449,17.5996324 5.23162574,18.5075877 C5.33465315,18.5578917 5.4,18.6625179 5.4,18.7771701 L5.4,18.8878582 C5.57933996,18.8732958 5.75705867,18.8456751 5.9326395,18.805218 C5.97696576,18.7950044 6.02303424,18.7950044 6.0673605,18.805218 C6.24294133,18.8456751 6.42066004,18.8732958 6.6,18.8878582 L6.6,18.7771701 C6.6,18.6625179 6.66534685,18.5578917 6.76837426,18.5075877 C8.62795551,17.5996324 9.9,15.2612559 9.9,12.6 C9.9,9.93874413 8.62795551,7.60036757 6.76837426,6.69241226 C6.66534685,6.64210831 6.6,6.53748211 6.6,6.42282988 L6.6,6.31214178 C6.42066004,6.32670424 6.24294133,6.35432495 6.0673605,6.39478202 C6.02303424,6.40499561 5.97696576,6.40499561 5.9326395,6.39478202 C5.75705867,6.35432495 5.57933996,6.32670424 5.4,6.31214178 L5.4,6.42282988 Z M1.5,12.6 C1.5,9.80031797 2.81437653,7.30785973 4.8,6.23961425 L4.8,6 C4.8,5.83431458 4.93431458,5.7 5.1,5.7 C5.40381094,5.7 5.70455664,5.73199416 6,5.79514359 C6.29544336,5.73199416 6.59618906,5.7 6.9,5.7 C7.06568542,5.7 7.2,5.83431458 7.2,6 L7.2,6.23961425 C9.18562347,7.30785973 10.5,9.80031797 10.5,12.6 C10.5,15.399682 9.18562347,17.8921403 7.2,18.9603857 L7.2,19.2 C7.2,19.3656854 7.06568542,19.5 6.9,19.5 C6.59618906,19.5 6.29544336,19.4680058 6,19.4048564 C5.70455664,19.4680058 5.40381094,19.5 5.1,19.5 C4.93431458,19.5 4.8,19.3656854 4.8,19.2 L4.8,18.9603857 C2.81437653,17.8921403 1.5,15.399682 1.5,12.6 Z" id="Combined-Shape-Copy" fill="#3E1289" fill-rule="nonzero" mask="url(#mask-2)" transform="translate(6.000000, 12.600000) rotate(-90.000000) translate(-6.000000, -12.600000) "></path>
                    <path d="M5.4,-6.77717012 C5.4,-6.66251789 5.33465315,-6.55789169 5.23162574,-6.50758774 C3.37204449,-5.59963243 2.1,-3.26125587 2.1,-0.6 C2.1,2.06125587 3.37204449,4.39963243 5.23162574,5.30758774 C5.33465315,5.35789169 5.4,5.46251789 5.4,5.57717012 L5.4,5.68785822 C5.57933996,5.67329576 5.75705867,5.64567505 5.9326395,5.60521798 C5.97696576,5.59500439 6.02303424,5.59500439 6.0673605,5.60521798 C6.24294133,5.64567505 6.42066004,5.67329576 6.6,5.68785822 L6.6,5.57717012 C6.6,5.46251789 6.66534685,5.35789169 6.76837426,5.30758774 C8.62795551,4.39963243 9.9,2.06125587 9.9,-0.6 C9.9,-3.26125587 8.62795551,-5.59963243 6.76837426,-6.50758774 C6.66534685,-6.55789169 6.6,-6.66251789 6.6,-6.77717012 L6.6,-6.88785822 C6.42066004,-6.87329576 6.24294133,-6.84567505 6.0673605,-6.80521798 C6.02303424,-6.79500439 5.97696576,-6.79500439 5.9326395,-6.80521798 C5.75705867,-6.84567505 5.57933996,-6.87329576 5.4,-6.88785822 L5.4,-6.77717012 Z M1.5,-0.6 C1.5,-3.39968203 2.81437653,-5.89214027 4.8,-6.96038575 L4.8,-7.2 C4.8,-7.36568542 4.93431458,-7.5 5.1,-7.5 C5.40381094,-7.5 5.70455664,-7.46800584 6,-7.40485641 C6.29544336,-7.46800584 6.59618906,-7.5 6.9,-7.5 C7.06568542,-7.5 7.2,-7.36568542 7.2,-7.2 L7.2,-6.96038575 C9.18562347,-5.89214027 10.5,-3.39968203 10.5,-0.6 C10.5,2.19968203 9.18562347,4.69214027 7.2,5.76038575 L7.2,6 C7.2,6.16568542 7.06568542,6.3 6.9,6.3 C6.59618906,6.3 6.29544336,6.26800584 6,6.20485641 C5.70455664,6.26800584 5.40381094,6.3 5.1,6.3 C4.93431458,6.3 4.8,6.16568542 4.8,6 L4.8,5.76038575 C2.81437653,4.69214027 1.5,2.19968203 1.5,-0.6 Z" id="Combined-Shape-Copy-2" fill="#3E1289" fill-rule="nonzero" mask="url(#mask-2)" transform="translate(6.000000, -0.600000) rotate(-90.000000) translate(-6.000000, 0.600000) "></path>
                    <rect id="Rectangle" fill="#3E1289" fill-rule="nonzero" mask="url(#mask-2)" x="5.7" y="-2.1" width="1" height="15.9"></rect>
                    <polygon id="Rectangle-Copy" fill="#3E1289" fill-rule="nonzero" mask="url(#mask-2)" transform="translate(6.000000, 5.850000) rotate(-270.000000) translate(-6.000000, -5.850000) " points="5.7 -2.1 6.3 -2.1 6.3 13.8 5.7 13.8"></polygon>
                </g>
                <path d="M20.9272387,11.0583389 C23.4514925,11.0194463 25.9757462,11 28.5,11 C31.0242538,11 33.5485075,11.0194463 36.0727613,11.0583389 L36.0727609,11.0583643 C36.5871555,11.0662899 37,11.4855443 37,12 C37,12 37,12 37,12 C37,12 37,12 37,12 C37,12.5144557 36.5871555,12.9337101 36.0727609,12.9416357 C33.5485075,12.9805537 31.0242538,13 28.5,13 C25.9757462,13 23.4514925,12.9805537 20.9272387,12.9416611 L20.9272391,12.9416357 C20.4128445,12.9337101 20,12.5144557 20,12 C20,12 20,12 20,12 C20,12 20,12 20,12 C20,11.4855443 20.4128445,11.0662899 20.9272391,11.0583643 Z" id="Rectangle-Copy-3" fill="#3E1289" fill-rule="nonzero"></path>
                <path d="M20.9278258,16.0540145 C22.7852172,16.0180048 24.6426086,16 26.5,16 C28.3573914,16 30.2147828,16.0180048 32.0721742,16.0540145 L32.0721743,16.054012 C32.587482,16.0640023 33,16.4845955 33,17 C33,17 33,17 33,17 C33,17 33,17 33,17 C33,17.5154045 32.587482,17.9359977 32.0721743,17.945988 C30.2147828,17.9819952 28.3573914,18 26.5,18 C24.6426086,18 22.7852172,17.9819952 20.9278258,17.9459855 L20.9278257,17.945988 C20.412518,17.9359977 20,17.5154045 20,17 C20,17 20,17 20,17 C20,17 20,17 20,17 C20,16.4845955 20.412518,16.0640023 20.9278257,16.054012 Z" id="Rectangle-Copy-4" fill="#3E1289" fill-rule="nonzero"></path>
            </g>
        </g>
    </g>
</svg>